<?xml version="1.0" standalone="no"?>
<!DOCTYPE svg PUBLIC "-//W3C//DTD SVG 20010904//EN"
 "http://www.w3.org/TR/2001/REC-SVG-20010904/DTD/svg10.dtd">
<svg version="1.0" xmlns="http://www.w3.org/2000/svg"
 width="260.000000pt" height="260.000000pt" viewBox="0 0 260.000000 260.000000"
 preserveAspectRatio="xMidYMid meet">
<metadata>
Created by potrace 1.11, written by Peter Selinger 2001-2013
</metadata>
<g transform="translate(0.000000,260.000000) scale(0.100000,-0.100000)"
fill="#000000" stroke="none">
<path d="M1950 2483 c-8 -2 -30 -26 -48 -53 -55 -80 -133 -129 -246 -155 -36
-9 -159 -20 -273 -25 -225 -10 -277 -19 -396 -70 -209 -87 -357 -250 -402
-441 -35 -149 -10 -359 60 -504 62 -129 215 -300 339 -380 51 -33 159 -75 191
-75 28 0 15 34 -42 109 -39 52 -42 69 -8 47 53 -35 163 -11 197 43 10 17 20
19 78 14 60 -5 70 -3 121 26 31 17 76 34 101 37 37 5 48 12 58 32 10 22 9 28
-6 39 -10 7 -21 13 -26 13 -14 0 -8 55 9 80 9 14 35 46 59 71 23 25 50 61 59
79 17 33 17 42 -1 138 -5 26 1 45 34 100 51 84 59 114 38 144 -27 39 -20 110
19 195 38 83 44 140 20 186 -13 26 -11 34 25 126 22 54 40 116 40 137 0 22 7
48 15 58 24 32 20 40 -15 29z m-195 -352 c38 -15 -64 -46 -227 -69 -264 -38
-403 -85 -499 -170 -82 -73 -139 -189 -139 -283 0 -68 29 -203 75 -347 25 -79
45 -148 45 -153 0 -56 -107 154 -145 286 -31 106 -43 264 -26 342 36 168 164
288 361 337 35 9 123 21 195 27 71 7 173 17 225 24 119 15 111 15 135 6z m5
-287 c0 -16 -89 -37 -199 -45 -145 -11 -212 -35 -253 -90 -88 -117 -97 -247
-33 -490 13 -51 22 -95 20 -97 -8 -8 -60 95 -86 171 -50 148 -57 292 -19 392
33 85 112 139 227 154 76 10 343 14 343 5z m-126 -301 c-91 -88 -108 -117
-109 -187 0 -33 4 -98 8 -143 9 -91 -1 -108 -26 -45 -25 62 -40 157 -35 225 3
51 10 72 32 101 31 41 119 96 155 96 22 0 20 -4 -25 -47z"/>
<path d="M1880 1081 c-41 -15 -110 -40 -152 -55 l-78 -28 0 -57 c0 -269 -119
-573 -257 -662 -149 -94 -305 48 -460 418 -25 60 -48 111 -52 115 -4 5 -66 -9
-139 -29 l-132 -36 0 -329 0 -328 685 0 685 0 0 510 c0 402 -3 510 -12 509 -7
0 -47 -13 -88 -28z"/>
<path d="M1345 897 c-42 -42 -51 -96 -36 -208 6 -44 8 -85 5 -90 -8 -13 -38
-11 -52 3 -22 22 -26 -2 -4 -25 30 -32 28 -40 -20 -73 l-43 -29 53 -9 c54 -9
71 -26 26 -26 -24 0 -24 -1 -10 -22 9 -12 16 -32 16 -45 0 -35 18 -36 25 -1 4
18 20 50 36 70 l29 37 -30 21 c-37 26 -37 36 -3 72 26 27 26 30 13 61 -7 17
-15 60 -18 95 l-4 62 36 0 c23 0 43 7 56 20 12 12 33 20 54 20 52 0 54 18 8
62 -54 50 -91 51 -137 5z"/>
</g>
</svg>
